<svg version="1.1" id="Layer_2" xmlns="http://www.w3.org/2000/svg" xmlns:xlink="http://www.w3.org/1999/xlink" x="0px" y="0px"
	 viewBox="0 0 341.4 50.1" style="enable-background:new 0 0 341.4 50.1;" xml:space="preserve">
  <g>
  	<g>
  		<g>
  			<path style="fill: #58585B" d="M84.3,2.1c6.2,0,10.5,2.9,13.2,5.7l-3.4,3.7C91.8,9,89,7.2,84.4,7.2c-9.3,0-15.3,7.2-15.3,18.6
  				c0,11.6,5.5,18.9,15.3,18.9c3.3,0,6.5-1.1,8.3-2.7v-12H83v-4.8h15.1v19.4c-3,2.9-8.1,5.3-14.3,5.3c-12.1,0-20.7-8.8-20.7-23.8
  				C63.1,11.1,72,2.1,84.3,2.1z"/>
  			<path style="fill: #58585B" d="M105.8,14.9h5.8v20.8c0,6.4,1.9,9.1,6.4,9.1c3.5,0,6-1.8,9.2-5.8V14.9h5.8v34.1h-4.8l-0.5-5.3h-0.2
  				c-3.2,3.7-6.5,6.2-11.2,6.2c-7.2,0-10.5-4.6-10.5-13.3V14.9z"/>
  			<path style="fill: #58585B" d="M142.5,14.9h5.8v34.1h-5.8V14.9z"/>
  			<path style="fill: #58585B" d="M171.6,14c4.5,0,7.6,1.9,10,4.1l-2.9,3.7c-2-1.8-4.1-3-6.9-3c-6.2,0-10.7,5.3-10.7,13.2
  				c0,7.8,4.3,13,10.5,13c3.2,0,6-1.6,8-3.4l2.6,3.8c-3.1,2.7-7,4.4-11.1,4.4c-9,0-16-6.5-16-17.8C155.2,20.5,162.9,14,171.6,14z"/>
  			<path style="fill: #58585B" d="M188.7,0h5.8v12.6l-0.2,7c3.2-3.1,6.7-5.6,11.4-5.6c7.2,0,10.4,4.6,10.4,13.3v21.6h-5.8V28.1
  				c0-6.4-2-9.1-6.5-9.1c-3.5,0-5.9,1.8-9.3,5.3v24.7h-5.8V0z"/>
  			<path style="fill: #58585B" d="M237.6,14c8.7,0,13.6,6.2,13.6,16c0,1.2-0.1,2.3-0.2,3.2h-23c0.4,7.4,4.8,12,11.4,12c3.2,0,6-1.1,8.5-2.7
  				l2,3.8c-2.9,1.9-6.6,3.5-11.2,3.5c-9.1,0-16.3-6.7-16.3-17.8C222.4,20.8,229.9,14,237.6,14z M246.2,29.4c0-6.9-3.1-10.8-8.4-10.8
  				c-4.8,0-9.1,3.9-9.8,10.8H246.2z"/>
  			<path style="fill: #58585B" d="M259.7,19.6h-5v-4.3l5.3-0.4l0.7-9.5h4.8v9.5h9.2v4.7h-9.2v18.9c0,4.2,1.3,6.6,5.3,6.6
  				c1.2,0,2.7-0.5,3.9-0.9l1.1,4.3c-1.9,0.6-4.2,1.3-6.3,1.3c-7.3,0-9.8-4.6-9.8-11.4V19.6z"/>
  			<path style="fill: #B22D36" d="M286.4,40.9c2.2,0,4.1,1.8,4.1,4.5c0,2.5-1.9,4.3-4.1,4.3c-2.3,0-4.2-1.8-4.2-4.3
  				C282.2,42.8,284.1,40.9,286.4,40.9z"/>
  			<path style="fill: #58585B" d="M298.9,0h5.8v42.5c0,1.8,0.8,2.5,1.6,2.5c0.4,0,0.6,0,1.3-0.1l0.8,4.3c-0.8,0.4-1.8,0.6-3.3,0.6
  				c-4.3,0-6.1-2.7-6.1-7.7V0z"/>
  			<path style="fill: #58585B" d="M314.3,14.9h5.8v20.8c0,6.4,1.9,9.1,6.4,9.1c3.5,0,6-1.8,9.2-5.8V14.9h5.8v34.1h-4.8l-0.5-5.3h-0.2
  				c-3.2,3.7-6.5,6.2-11.2,6.2c-7.2,0-10.5-4.6-10.5-13.3V14.9z"/>
  		</g>
  	</g>
  	<path style="fill: #58585B" d="M141.4,4.1c0-2.2,1.8-3.7,4-3.7s4,1.5,4,3.7c0,2.2-1.8,3.7-4,3.7S141.4,6.3,141.4,4.1z"/>
  	<g>
  		<path style="fill: #706F6F" d="M21.2,40.9c-1.5,0.7-3.4,0-4-1.5c-0.7-1.5,0-3.3,1.6-4c1.5-0.7,3.4,0,4,1.5C23.4,38.4,22.7,40.2,21.2,40.9"/>
  		<path style="fill: #706F6F" d="M30.3,15.8c-1.5,0.7-3.4,0-4-1.5c-0.7-1.5,0-3.3,1.6-4c1.5-0.7,3.4,0,4,1.5C32.5,13.3,31.8,15.1,30.3,15.8"/>
  		<path style="fill: #B22D36" d="M26.3,30c-2.4,1.1-5.2,0-6.2-2.4c-1.1-2.4,0-5.2,2.4-6.2c2.4-1.1,5.2,0,6.2,2.4C29.8,26.2,28.7,29,26.3,30"/>
  		<path style="fill: #706F6F" d="M33,38.7c-0.6,1.6-2.4,2.4-3.9,1.8c-1.6-0.6-2.4-2.4-1.8-4c0.6-1.6,2.4-2.4,3.9-1.8
  			C32.8,35.4,33.6,37.2,33,38.7"/>
  		<path style="fill: #706F6F" d="M21.7,14.6c-0.6,1.6-2.4,2.4-3.9,1.8c-1.6-0.6-2.4-2.4-1.8-4c0.6-1.6,2.4-2.4,3.9-1.8
  			C21.5,11.2,22.3,13,21.7,14.6"/>
  		<path style="fill: #706F6F" d="M39.8,28.9c0.7,1.5,0,3.4-1.5,4c-1.5,0.7-3.3,0-4-1.6c-0.7-1.5,0-3.4,1.5-4C37.3,26.6,39.1,27.3,39.8,28.9"/>
  		<path style="fill: #706F6F" d="M14.7,19.8c0.7,1.5,0,3.4-1.5,4c-1.5,0.7-3.3,0-4-1.6c-0.7-1.5,0-3.4,1.5-4C12.2,17.5,14,18.2,14.7,19.8"/>
  		<path style="fill: #706F6F" d="M37.7,17.1c1.6,0.6,2.4,2.4,1.8,3.9c-0.6,1.6-2.4,2.4-4,1.8c-1.6-0.6-2.4-2.4-1.8-3.9
  			C34.3,17.2,36.1,16.5,37.7,17.1"/>
  		<path style="fill: #706F6F" d="M13.5,28.4c1.6,0.6,2.4,2.4,1.8,3.9c-0.6,1.6-2.4,2.4-4,1.8c-1.6-0.6-2.4-2.4-1.8-3.9
  			C10.1,28.6,11.9,27.8,13.5,28.4"/>
  		<ellipse transform="matrix(1 -1.366018e-03 1.366018e-03 1 -6.554825e-02 3.346942e-02)" style="fill: #9D9D9C" cx="24.5" cy="48" rx="2.1" ry="2.1"/>
  		<ellipse transform="matrix(1 -1.366018e-03 1.366018e-03 1 -4.547788e-03 3.334443e-02)" style="fill: #9D9D9C" cx="24.4" cy="3.3" rx="2.1" ry="2.1"/>
  		<ellipse transform="matrix(0.7061 -0.7081 0.7081 0.7061 -17.5155 40.6761)" style="fill: #9D9D9C" cx="40.2" cy="41.4" rx="2.1" ry="2.1"/>
  		<ellipse transform="matrix(0.7061 -0.7081 0.7081 0.7061 -4.4794 9.0209)" style="fill: #9D9D9C" cx="8.6" cy="9.9" rx="2.1" ry="2.1"/>
  		<ellipse transform="matrix(1 -1.366018e-03 1.366018e-03 1 -3.498552e-02 6.390715e-02)" style="fill: #9D9D9C" cx="46.8" cy="25.6" rx="2.1" ry="2.1"/>
  		<ellipse transform="matrix(1 -1.366018e-03 1.366018e-03 1 -3.511051e-02 2.906688e-03)" style="fill: #9D9D9C" cx="2.1" cy="25.7" rx="2.1" ry="2.1"/>
  		<ellipse transform="matrix(0.7061 -0.7081 0.7081 0.7061 4.8301 31.3665)" style="fill: #9D9D9C" cx="40.2" cy="9.9" rx="2.1" ry="2.1"/>
  		<ellipse transform="matrix(0.7061 -0.7081 0.7081 0.7061 -26.8251 18.3304)" style="fill: #9D9D9C" cx="8.7" cy="41.5" rx="2.1" ry="2.1"/>
  	</g>
  </g>
</svg>
